<svg xmlns="http://www.w3.org/2000/svg" width="468" height="63">
<rect x="0" y="0" width="7" height="7" fill="#3CDD4F" rx="1" stroke="#00000000" stroke-width="0.5" title="2024-01-01"/>
<rect x="0" y="9" width="7" height="7" fill="#E5FA00" rx="1" stroke="#00000000" stroke-width="0.5" title="2024-01-02"/>
<rect x="0" y="18" width="7" height="7" fill="#3CDD4F" rx="1" stroke="#00000000" stroke-width="0.5" title="2024-01-03"/>
<rect x="0" y="27" width="7" height="7" fill="#3CDD4F" rx="1" stroke="#00000000" stroke-width="0.5" title="2024-01-04"/>
<rect x="0" y="36" width="7" height="7" fill="#3CDD4F" rx="1" stroke="#00000000" stroke-width="0.5" title="2024-01-05"/>
<rect x="0" y="45" width="7" height="7" fill="#E5FA00" rx="1" stroke="#00000000" stroke-width="0.5" title="2024-01-06"/>
<rect x="0" y="54" width="7" height="7" fill="#E5FA00" rx="1" stroke="#00000000" stroke-width="0.5" title="2024-01-07"/>
<rect x="9" y="0" width="7" height="7" fill="#E5FA00" rx="1" stroke="#00000000" stroke-width="0.5" title="2024-01-08"/>
<rect x="9" y="9" width="7" height="7" fill="#3CDD4F" rx="1" stroke="#00000000" stroke-width="0.5" title="2024-01-09"/>
<rect x="9" y="18" width="7" height="7" fill="#3CDD4F" rx="1" stroke="#00000000" stroke-width="0.5" title="2024-01-10"/>
<rect x="9" y="27" width="7" height="7" fill="#3CDD4F" rx="1" stroke="#00000000" stroke-width="0.5" title="2024-01-11"/>
<rect x="9" y="36" width="7" height="7" fill="#E5FA00" rx="1" stroke="#00000000" stroke-width="0.5" title="2024-01-12"/>
<rect x="9" y="45" width="7" height="7" fill="#3CDD4F" rx="1" stroke="#00000000" stroke-width="0.5" title="2024-01-13"/>
<rect x="9" y="54" width="7" height="7" fill="#3CDD4F" rx="1" stroke="#00000000" stroke-width="0.5" title="2024-01-14"/>
<rect x="18" y="0" width="7" height="7" fill="#3CDD4F" rx="1" stroke="#00000000" stroke-width="0.5" title="2024-01-15"/>
<rect x="18" y="9" width="7" height="7" fill="#3CDD4F" rx="1" stroke="#00000000" stroke-width="0.5" title="2024-01-16"/>
<rect x="18" y="18" width="7" height="7" fill="#3CDD4F" rx="1" stroke="#00000000" stroke-width="0.5" title="2024-01-17"/>
<rect x="18" y="27" width="7" height="7" fill="#3CDD4F" rx="1" stroke="#00000000" stroke-width="0.5" title="2024-01-18"/>
<rect x="18" y="36" width="7" height="7" fill="#E5FA00" rx="1" stroke="#00000000" stroke-width="0.5" title="2024-01-19"/>
<rect x="18" y="45" width="7" height="7" fill="#3CDD4F" rx="1" stroke="#00000000" stroke-width="0.5" title="2024-01-20"/>
<rect x="18" y="54" width="7" height="7" fill="#E5FA00" rx="1" stroke="#00000000" stroke-width="0.5" title="2024-01-21"/>
<rect x="27" y="0" width="7" height="7" fill="#3CDD4F" rx="1" stroke="#00000000" stroke-width="0.5" title="2024-01-22"/>
<rect x="27" y="9" width="7" height="7" fill="#3CDD4F" rx="1" stroke="#00000000" stroke-width="0.5" title="2024-01-23"/>
<rect x="27" y="18" width="7" height="7" fill="#3CDD4F" rx="1" stroke="#00000000" stroke-width="0.5" title="2024-01-24"/>
<rect x="27" y="27" width="7" height="7" fill="#E5FA00" rx="1" stroke="#00000000" stroke-width="0.5" title="2024-01-25"/>
<rect x="27" y="36" width="7" height="7" fill="#3CDD4F" rx="1" stroke="#00000000" stroke-width="0.5" title="2024-01-26"/>
<rect x="27" y="45" width="7" height="7" fill="#3CDD4F" rx="1" stroke="#00000000" stroke-width="0.5" title="2024-01-27"/>
<rect x="27" y="54" width="7" height="7" fill="#3CDD4F" rx="1" stroke="#00000000" stroke-width="0.5" title="2024-01-28"/>
<rect x="36" y="0" width="7" height="7" fill="#E5FA00" rx="1" stroke="#00000000" stroke-width="0.5" title="2024-01-29"/>
<rect x="36" y="9" width="7" height="7" fill="#3CDD4F" rx="1" stroke="#00000000" stroke-width="0.5" title="2024-01-30"/>
<rect x="36" y="18" width="7" height="7" fill="#3CDD4F" rx="1" stroke="#00000000" stroke-width="0.5" title="2024-01-31"/>
<rect x="36" y="27" width="7" height="7" fill="#E5FA00" rx="1" stroke="#00000000" stroke-width="0.5" title="2024-02-01"/>
<rect x="36" y="36" width="7" height="7" fill="#3CDD4F" rx="1" stroke="#00000000" stroke-width="0.5" title="2024-02-02"/>
<rect x="36" y="45" width="7" height="7" fill="#3CDD4F" rx="1" stroke="#00000000" stroke-width="0.5" title="2024-02-03"/>
<rect x="36" y="54" width="7" height="7" fill="#3CDD4F" rx="1" stroke="#00000000" stroke-width="0.5" title="2024-02-04"/>
<rect x="45" y="0" width="7" height="7" fill="#3CDD4F" rx="1" stroke="#00000000" stroke-width="0.5" title="2024-02-05"/>
<rect x="45" y="9" width="7" height="7" fill="#E5FA00" rx="1" stroke="#00000000" stroke-width="0.5" title="2024-02-06"/>
<rect x="45" y="18" width="7" height="7" fill="#3CDD4F" rx="1" stroke="#00000000" stroke-width="0.5" title="2024-02-07"/>
<rect x="45" y="27" width="7" height="7" fill="#3CDD4F" rx="1" stroke="#00000000" stroke-width="0.5" title="2024-02-08"/>
<rect x="45" y="36" width="7" height="7" fill="#3CDD4F" rx="1" stroke="#00000000" stroke-width="0.5" title="2024-02-09"/>
<rect x="45" y="45" width="7" height="7" fill="#3CDD4F" rx="1" stroke="#00000000" stroke-width="0.5" title="2024-02-10"/>
<rect x="45" y="54" width="7" height="7" fill="#3CDD4F" rx="1" stroke="#00000000" stroke-width="0.5" title="2024-02-11"/>
<rect x="54" y="0" width="7" height="7" fill="#E5FA00" rx="1" stroke="#00000000" stroke-width="0.5" title="2024-02-12"/>
<rect x="54" y="9" width="7" height="7" fill="#3CDD4F" rx="1" stroke="#00000000" stroke-width="0.5" title="2024-02-13"/>
<rect x="54" y="18" width="7" height="7" fill="#3CDD4F" rx="1" stroke="#00000000" stroke-width="0.5" title="2024-02-14"/>
<rect x="54" y="27" width="7" height="7" fill="#FFB700" rx="1" stroke="#00000000" stroke-width="0.5" title="2024-02-15"/>
<rect x="54" y="36" width="7" height="7" fill="#E5FA00" rx="1" stroke="#00000000" stroke-width="0.5" title="2024-02-16"/>
<rect x="54" y="45" width="7" height="7" fill="#3CDD4F" rx="1" stroke="#00000000" stroke-width="0.5" title="2024-02-17"/>
<rect x="54" y="54" width="7" height="7" fill="#3CDD4F" rx="1" stroke="#00000000" stroke-width="0.5" title="2024-02-18"/>
<rect x="63" y="0" width="7" height="7" fill="#3CDD4F" rx="1" stroke="#00000000" stroke-width="0.5" title="2024-02-19"/>
<rect x="63" y="9" width="7" height="7" fill="#3CDD4F" rx="1" stroke="#00000000" stroke-width="0.5" title="2024-02-20"/>
<rect x="63" y="18" width="7" height="7" fill="#3CDD4F" rx="1" stroke="#00000000" stroke-width="0.5" title="2024-02-21"/>
<rect x="63" y="27" width="7" height="7" fill="#E5FA00" rx="1" stroke="#00000000" stroke-width="0.5" title="2024-02-22"/>
<rect x="63" y="36" width="7" height="7" fill="#3CDD4F" rx="1" stroke="#00000000" stroke-width="0.5" title="2024-02-23"/>
<rect x="63" y="45" width="7" height="7" fill="#3CDD4F" rx="1" stroke="#00000000" stroke-width="0.5" title="2024-02-24"/>
<rect x="63" y="54" width="7" height="7" fill="#3CDD4F" rx="1" stroke="#00000000" stroke-width="0.5" title="2024-02-25"/>
<rect x="72" y="0" width="7" height="7" fill="#3CDD4F" rx="1" stroke="#00000000" stroke-width="0.5" title="2024-02-26"/>
<rect x="72" y="9" width="7" height="7" fill="#3CDD4F" rx="1" stroke="#00000000" stroke-width="0.5" title="2024-02-27"/>
<rect x="72" y="18" width="7" height="7" fill="#E5FA00" rx="1" stroke="#00000000" stroke-width="0.5" title="2024-02-28"/>
<rect x="72" y="27" width="7" height="7" fill="#3CDD4F" rx="1" stroke="#00000000" stroke-width="0.5" title="2024-02-29"/>
<rect x="72" y="36" width="7" height="7" fill="#3CDD4F" rx="1" stroke="#00000000" stroke-width="0.5" title="2024-03-01"/>
<rect x="72" y="45" width="7" height="7" fill="#3CDD4F" rx="1" stroke="#00000000" stroke-width="0.5" title="2024-03-02"/>
<rect x="72" y="54" width="7" height="7" fill="#3CDD4F" rx="1" stroke="#00000000" stroke-width="0.5" title="2024-03-03"/>
<rect x="81" y="0" width="7" height="7" fill="#E5FA00" rx="1" stroke="#00000000" stroke-width="0.5" title="2024-03-04"/>
<rect x="81" y="9" width="7" height="7" fill="#3CDD4F" rx="1" stroke="#00000000" stroke-width="0.5" title="2024-03-05"/>
<rect x="81" y="18" width="7" height="7" fill="#E5FA00" rx="1" stroke="#00000000" stroke-width="0.5" title="2024-03-06"/>
<rect x="81" y="27" width="7" height="7" fill="#FFB700" rx="1" stroke="#00000000" stroke-width="0.5" title="2024-03-07"/>
<rect x="81" y="36" width="7" height="7" fill="#3CDD4F" rx="1" stroke="#00000000" stroke-width="0.5" title="2024-03-08"/>
<rect x="81" y="45" width="7" height="7" fill="#3CDD4F" rx="1" stroke="#00000000" stroke-width="0.5" title="2024-03-09"/>
<rect x="81" y="54" width="7" height="7" fill="#3CDD4F" rx="1" stroke="#00000000" stroke-width="0.5" title="2024-03-10"/>
<rect x="90" y="0" width="7" height="7" fill="#3CDD4F" rx="1" stroke="#00000000" stroke-width="0.5" title="2024-03-11"/>
<rect x="90" y="9" width="7" height="7" fill="#E5FA00" rx="1" stroke="#00000000" stroke-width="0.5" title="2024-03-12"/>
<rect x="90" y="18" width="7" height="7" fill="#3CDD4F" rx="1" stroke="#00000000" stroke-width="0.5" title="2024-03-13"/>
<rect x="90" y="27" width="7" height="7" fill="#3CDD4F" rx="1" stroke="#00000000" stroke-width="0.5" title="2024-03-14"/>
<rect x="90" y="36" width="7" height="7" fill="#3CDD4F" rx="1" stroke="#00000000" stroke-width="0.5" title="2024-03-15"/>
<rect x="90" y="45" width="7" height="7" fill="#3CDD4F" rx="1" stroke="#00000000" stroke-width="0.5" title="2024-03-16"/>
<rect x="90" y="54" width="7" height="7" fill="#3CDD4F" rx="1" stroke="#00000000" stroke-width="0.5" title="2024-03-17"/>
<rect x="99" y="0" width="7" height="7" fill="#E5FA00" rx="1" stroke="#00000000" stroke-width="0.5" title="2024-03-18"/>
<rect x="99" y="9" width="7" height="7" fill="#3CDD4F" rx="1" stroke="#00000000" stroke-width="0.5" title="2024-03-19"/>
<rect x="99" y="18" width="7" height="7" fill="#3CDD4F" rx="1" stroke="#00000000" stroke-width="0.5" title="2024-03-20"/>
<rect x="99" y="27" width="7" height="7" fill="#3CDD4F" rx="1" stroke="#00000000" stroke-width="0.5" title="2024-03-21"/>
<rect x="99" y="36" width="7" height="7" fill="#3CDD4F" rx="1" stroke="#00000000" stroke-width="0.5" title="2024-03-22"/>
<rect x="99" y="45" width="7" height="7" fill="#E5FA00" rx="1" stroke="#00000000" stroke-width="0.5" title="2024-03-23"/>
<rect x="99" y="54" width="7" height="7" fill="#3CDD4F" rx="1" stroke="#00000000" stroke-width="0.5" title="2024-03-24"/>
<rect x="108" y="0" width="7" height="7" fill="#3CDD4F" rx="1" stroke="#00000000" stroke-width="0.5" title="2024-03-25"/>
<rect x="108" y="9" width="7" height="7" fill="#3CDD4F" rx="1" stroke="#00000000" stroke-width="0.5" title="2024-03-26"/>
<rect x="108" y="18" width="7" height="7" fill="#3CDD4F" rx="1" stroke="#00000000" stroke-width="0.5" title="2024-03-27"/>
<rect x="108" y="27" width="7" height="7" fill="#E5FA00" rx="1" stroke="#00000000" stroke-width="0.5" title="2024-03-28"/>
<rect x="108" y="36" width="7" height="7" fill="#3CDD4F" rx="1" stroke="#00000000" stroke-width="0.5" title="2024-03-29"/>
<rect x="108" y="45" width="7" height="7" fill="#3CDD4F" rx="1" stroke="#00000000" stroke-width="0.5" title="2024-03-30"/>
<rect x="108" y="54" width="7" height="7" fill="#3CDD4F" rx="1" stroke="#00000000" stroke-width="0.5" title="2024-03-31"/>
<rect x="117" y="0" width="7" height="7" fill="#3CDD4F" rx="1" stroke="#00000000" stroke-width="0.5" title="2024-04-01"/>
<rect x="117" y="9" width="7" height="7" fill="#3CDD4F" rx="1" stroke="#00000000" stroke-width="0.5" title="2024-04-02"/>
<rect x="117" y="18" width="7" height="7" fill="#E5FA00" rx="1" stroke="#00000000" stroke-width="0.5" title="2024-04-03"/>
<rect x="117" y="27" width="7" height="7" fill="#3CDD4F" rx="1" stroke="#00000000" stroke-width="0.5" title="2024-04-04"/>
<rect x="117" y="36" width="7" height="7" fill="#3CDD4F" rx="1" stroke="#00000000" stroke-width="0.5" title="2024-04-05"/>
<rect x="117" y="45" width="7" height="7" fill="#3CDD4F" rx="1" stroke="#00000000" stroke-width="0.5" title="2024-04-06"/>
<rect x="117" y="54" width="7" height="7" fill="#3CDD4F" rx="1" stroke="#00000000" stroke-width="0.5" title="2024-04-07"/>
<rect x="126" y="0" width="7" height="7" fill="#3CDD4F" rx="1" stroke="#00000000" stroke-width="0.5" title="2024-04-08"/>
<rect x="126" y="9" width="7" height="7" fill="#FFB700" rx="1" stroke="#00000000" stroke-width="0.5" title="2024-04-09"/>
<rect x="126" y="18" width="7" height="7" fill="#3CDD4F" rx="1" stroke="#00000000" stroke-width="0.5" title="2024-04-10"/>
<rect x="126" y="27" width="7" height="7" fill="#3CDD4F" rx="1" stroke="#00000000" stroke-width="0.5" title="2024-04-11"/>
<rect x="126" y="36" width="7" height="7" fill="#3CDD4F" rx="1" stroke="#00000000" stroke-width="0.5" title="2024-04-12"/>
<rect x="126" y="45" width="7" height="7" fill="#3CDD4F" rx="1" stroke="#00000000" stroke-width="0.5" title="2024-04-13"/>
<rect x="126" y="54" width="7" height="7" fill="#E5FA00" rx="1" stroke="#00000000" stroke-width="0.5" title="2024-04-14"/>
<rect x="135" y="0" width="7" height="7" fill="#3CDD4F" rx="1" stroke="#00000000" stroke-width="0.5" title="2024-04-15"/>
<rect x="135" y="9" width="7" height="7" fill="#3CDD4F" rx="1" stroke="#00000000" stroke-width="0.5" title="2024-04-16"/>
<rect x="135" y="18" width="7" height="7" fill="#3CDD4F" rx="1" stroke="#00000000" stroke-width="0.5" title="2024-04-17"/>
<rect x="135" y="27" width="7" height="7" fill="#3CDD4F" rx="1" stroke="#00000000" stroke-width="0.5" title="2024-04-18"/>
<rect x="135" y="36" width="7" height="7" fill="#3CDD4F" rx="1" stroke="#00000000" stroke-width="0.5" title="2024-04-19"/>
<rect x="135" y="45" width="7" height="7" fill="#E5FA00" rx="1" stroke="#00000000" stroke-width="0.5" title="2024-04-20"/>
<rect x="135" y="54" width="7" height="7" fill="#3CDD4F" rx="1" stroke="#00000000" stroke-width="0.5" title="2024-04-21"/>
<rect x="144" y="0" width="7" height="7" fill="#3CDD4F" rx="1" stroke="#00000000" stroke-width="0.5" title="2024-04-22"/>
<rect x="144" y="9" width="7" height="7" fill="#3CDD4F" rx="1" stroke="#00000000" stroke-width="0.5" title="2024-04-23"/>
<rect x="144" y="18" width="7" height="7" fill="#3CDD4F" rx="1" stroke="#00000000" stroke-width="0.5" title="2024-04-24"/>
<rect x="144" y="27" width="7" height="7" fill="#E5FA00" rx="1" stroke="#00000000" stroke-width="0.5" title="2024-04-25"/>
<rect x="144" y="36" width="7" height="7" fill="#3CDD4F" rx="1" stroke="#00000000" stroke-width="0.5" title="2024-04-26"/>
<rect x="144" y="45" width="7" height="7" fill="#3CDD4F" rx="1" stroke="#00000000" stroke-width="0.5" title="2024-04-27"/>
<rect x="144" y="54" width="7" height="7" fill="#3CDD4F" rx="1" stroke="#00000000" stroke-width="0.5" title="2024-04-28"/>
<rect x="153" y="0" width="7" height="7" fill="#3CDD4F" rx="1" stroke="#00000000" stroke-width="0.5" title="2024-04-29"/>
<rect x="153" y="9" width="7" height="7" fill="#E5FA00" rx="1" stroke="#00000000" stroke-width="0.5" title="2024-04-30"/>
<rect x="153" y="18" width="7" height="7" fill="#3CDD4F" rx="1" stroke="#00000000" stroke-width="0.5" title="2024-05-01"/>
<rect x="153" y="27" width="7" height="7" fill="#3CDD4F" rx="1" stroke="#00000000" stroke-width="0.5" title="2024-05-02"/>
<rect x="153" y="36" width="7" height="7" fill="#3CDD4F" rx="1" stroke="#00000000" stroke-width="0.5" title="2024-05-03"/>
<rect x="153" y="45" width="7" height="7" fill="#3CDD4F" rx="1" stroke="#00000000" stroke-width="0.5" title="2024-05-04"/>
<rect x="153" y="54" width="7" height="7" fill="#3CDD4F" rx="1" stroke="#00000000" stroke-width="0.5" title="2024-05-05"/>
<rect x="162" y="0" width="7" height="7" fill="#E5FA00" rx="1" stroke="#00000000" stroke-width="0.5" title="2024-05-06"/>
<rect x="162" y="9" width="7" height="7" fill="#3CDD4F" rx="1" stroke="#00000000" stroke-width="0.5" title="2024-05-07"/>
<rect x="162" y="18" width="7" height="7" fill="#3CDD4F" rx="1" stroke="#00000000" stroke-width="0.5" title="2024-05-08"/>
<rect x="162" y="27" width="7" height="7" fill="#3CDD4F" rx="1" stroke="#00000000" stroke-width="0.5" title="2024-05-09"/>
<rect x="162" y="36" width="7" height="7" fill="#FFB700" rx="1" stroke="#00000000" stroke-width="0.5" title="2024-05-10"/>
<rect x="162" y="45" width="7" height="7" fill="#3CDD4F" rx="1" stroke="#00000000" stroke-width="0.5" title="2024-05-11"/>
<rect x="162" y="54" width="7" height="7" fill="#E5FA00" rx="1" stroke="#00000000" stroke-width="0.5" title="2024-05-12"/>
<rect x="171" y="0" width="7" height="7" fill="#3CDD4F" rx="1" stroke="#00000000" stroke-width="0.5" title="2024-05-13"/>
<rect x="171" y="9" width="7" height="7" fill="#3CDD4F" rx="1" stroke="#00000000" stroke-width="0.5" title="2024-05-14"/>
<rect x="171" y="18" width="7" height="7" fill="#3CDD4F" rx="1" stroke="#00000000" stroke-width="0.5" title="2024-05-15"/>
<rect x="171" y="27" width="7" height="7" fill="#3CDD4F" rx="1" stroke="#00000000" stroke-width="0.5" title="2024-05-16"/>
<rect x="171" y="36" width="7" height="7" fill="#3CDD4F" rx="1" stroke="#00000000" stroke-width="0.5" title="2024-05-17"/>
<rect x="171" y="45" width="7" height="7" fill="#E5FA00" rx="1" stroke="#00000000" stroke-width="0.5" title="2024-05-18"/>
<rect x="171" y="54" width="7" height="7" fill="#3CDD4F" rx="1" stroke="#00000000" stroke-width="0.5" title="2024-05-19"/>
<rect x="180" y="0" width="7" height="7" fill="#E5FA00" rx="1" stroke="#00000000" stroke-width="0.5" title="2024-05-20"/>
<rect x="180" y="9" width="7" height="7" fill="#3CDD4F" rx="1" stroke="#00000000" stroke-width="0.5" title="2024-05-21"/>
<rect x="180" y="18" width="7" height="7" fill="#3CDD4F" rx="1" stroke="#00000000" stroke-width="0.5" title="2024-05-22"/>
<rect x="180" y="27" width="7" height="7" fill="#E5FA00" rx="1" stroke="#00000000" stroke-width="0.5" title="2024-05-23"/>
<rect x="180" y="36" width="7" height="7" fill="#3CDD4F" rx="1" stroke="#00000000" stroke-width="0.5" title="2024-05-24"/>
<rect x="180" y="45" width="7" height="7" fill="#3CDD4F" rx="1" stroke="#00000000" stroke-width="0.5" title="2024-05-25"/>
<rect x="180" y="54" width="7" height="7" fill="#3CDD4F" rx="1" stroke="#00000000" stroke-width="0.5" title="2024-05-26"/>
<rect x="189" y="0" width="7" height="7" fill="#3CDD4F" rx="1" stroke="#00000000" stroke-width="0.5" title="2024-05-27"/>
<rect x="189" y="9" width="7" height="7" fill="#3CDD4F" rx="1" stroke="#00000000" stroke-width="0.5" title="2024-05-28"/>
<rect x="189" y="18" width="7" height="7" fill="#E5FA00" rx="1" stroke="#00000000" stroke-width="0.5" title="2024-05-29"/>
<rect x="189" y="27" width="7" height="7" fill="#3CDD4F" rx="1" stroke="#00000000" stroke-width="0.5" title="2024-05-30"/>
<rect x="189" y="36" width="7" height="7" fill="#3CDD4F" rx="1" stroke="#00000000" stroke-width="0.5" title="2024-05-31"/>
<rect x="189" y="45" width="7" height="7" fill="#3CDD4F" rx="1" stroke="#00000000" stroke-width="0.5" title="2024-06-01"/>
<rect x="189" y="54" width="7" height="7" fill="#3CDD4F" rx="1" stroke="#00000000" stroke-width="0.5" title="2024-06-02"/>
<rect x="198" y="0" width="7" height="7" fill="#3CDD4F" rx="1" stroke="#00000000" stroke-width="0.5" title="2024-06-03"/>
<rect x="198" y="9" width="7" height="7" fill="#3CDD4F" rx="1" stroke="#00000000" stroke-width="0.5" title="2024-06-04"/>
<rect x="198" y="18" width="7" height="7" fill="#E5FA00" rx="1" stroke="#00000000" stroke-width="0.5" title="2024-06-05"/>
<rect x="198" y="27" width="7" height="7" fill="#3CDD4F" rx="1" stroke="#00000000" stroke-width="0.5" title="2024-06-06"/>
<rect x="198" y="36" width="7" height="7" fill="#3CDD4F" rx="1" stroke="#00000000" stroke-width="0.5" title="2024-06-07"/>
<rect x="198" y="45" width="7" height="7" fill="#3CDD4F" rx="1" stroke="#00000000" stroke-width="0.5" title="2024-06-08"/>
<rect x="198" y="54" width="7" height="7" fill="#3CDD4F" rx="1" stroke="#00000000" stroke-width="0.5" title="2024-06-09"/>
<rect x="207" y="0" width="7" height="7" fill="#E5FA00" rx="1" stroke="#00000000" stroke-width="0.5" title="2024-06-10"/>
<rect x="207" y="9" width="7" height="7" fill="#3CDD4F" rx="1" stroke="#00000000" stroke-width="0.5" title="2024-06-11"/>
<rect x="207" y="18" width="7" height="7" fill="#3CDD4F" rx="1" stroke="#00000000" stroke-width="0.5" title="2024-06-12"/>
<rect x="207" y="27" width="7" height="7" fill="#3CDD4F" rx="1" stroke="#00000000" stroke-width="0.5" title="2024-06-13"/>
<rect x="207" y="36" width="7" height="7" fill="#3CDD4F" rx="1" stroke="#00000000" stroke-width="0.5" title="2024-06-14"/>
<rect x="207" y="45" width="7" height="7" fill="#E5FA00" rx="1" stroke="#00000000" stroke-width="0.5" title="2024-06-15"/>
<rect x="207" y="54" width="7" height="7" fill="#3CDD4F" rx="1" stroke="#00000000" stroke-width="0.5" title="2024-06-16"/>
<rect x="216" y="0" width="7" height="7" fill="#3CDD4F" rx="1" stroke="#00000000" stroke-width="0.5" title="2024-06-17"/>
<rect x="216" y="9" width="7" height="7" fill="#3CDD4F" rx="1" stroke="#00000000" stroke-width="0.5" title="2024-06-18"/>
<rect x="216" y="18" width="7" height="7" fill="#3CDD4F" rx="1" stroke="#00000000" stroke-width="0.5" title="2024-06-19"/>
<rect x="216" y="27" width="7" height="7" fill="#3CDD4F" rx="1" stroke="#00000000" stroke-width="0.5" title="2024-06-20"/>
<rect x="216" y="36" width="7" height="7" fill="#E5FA00" rx="1" stroke="#00000000" stroke-width="0.5" title="2024-06-21"/>
<rect x="216" y="45" width="7" height="7" fill="#3CDD4F" rx="1" stroke="#00000000" stroke-width="0.5" title="2024-06-22"/>
<rect x="216" y="54" width="7" height="7" fill="#3CDD4F" rx="1" stroke="#00000000" stroke-width="0.5" title="2024-06-23"/>
<rect x="225" y="0" width="7" height="7" fill="#3CDD4F" rx="1" stroke="#00000000" stroke-width="0.5" title="2024-06-24"/>
<rect x="225" y="9" width="7" height="7" fill="#FFB700" rx="1" stroke="#00000000" stroke-width="0.5" title="2024-06-25"/>
<rect x="225" y="18" width="7" height="7" fill="#E5FA00" rx="1" stroke="#00000000" stroke-width="0.5" title="2024-06-26"/>
<rect x="225" y="27" width="7" height="7" fill="#3CDD4F" rx="1" stroke="#00000000" stroke-width="0.5" title="2024-06-27"/>
<rect x="225" y="36" width="7" height="7" fill="#3CDD4F" rx="1" stroke="#00000000" stroke-width="0.5" title="2024-06-28"/>
<rect x="225" y="45" width="7" height="7" fill="#E5FA00" rx="1" stroke="#00000000" stroke-width="0.5" title="2024-06-29"/>
<rect x="225" y="54" width="7" height="7" fill="#E5FA00" rx="1" stroke="#00000000" stroke-width="0.5" title="2024-06-30"/>
<rect x="234" y="0" width="7" height="7" fill="#3CDD4F" rx="1" stroke="#00000000" stroke-width="0.5" title="2024-07-01"/>
<rect x="234" y="9" width="7" height="7" fill="#3CDD4F" rx="1" stroke="#00000000" stroke-width="0.5" title="2024-07-02"/>
<rect x="234" y="18" width="7" height="7" fill="#E5FA00" rx="1" stroke="#00000000" stroke-width="0.5" title="2024-07-03"/>
<rect x="234" y="27" width="7" height="7" fill="#3CDD4F" rx="1" stroke="#00000000" stroke-width="0.5" title="2024-07-04"/>
<rect x="234" y="36" width="7" height="7" fill="#FFB700" rx="1" stroke="#00000000" stroke-width="0.5" title="2024-07-05"/>
<rect x="234" y="45" width="7" height="7" fill="#3CDD4F" rx="1" stroke="#00000000" stroke-width="0.5" title="2024-07-06"/>
<rect x="234" y="54" width="7" height="7" fill="#3CDD4F" rx="1" stroke="#00000000" stroke-width="0.5" title="2024-07-07"/>
<rect x="243" y="0" width="7" height="7" fill="#3CDD4F" rx="1" stroke="#00000000" stroke-width="0.5" title="2024-07-08"/>
<rect x="243" y="9" width="7" height="7" fill="#E5FA00" rx="1" stroke="#00000000" stroke-width="0.5" title="2024-07-09"/>
<rect x="243" y="18" width="7" height="7" fill="#3CDD4F" rx="1" stroke="#00000000" stroke-width="0.5" title="2024-07-10"/>
<rect x="243" y="27" width="7" height="7" fill="#FFB700" rx="1" stroke="#00000000" stroke-width="0.5" title="2024-07-11"/>
<rect x="243" y="36" width="7" height="7" fill="#3CDD4F" rx="1" stroke="#00000000" stroke-width="0.5" title="2024-07-12"/>
<rect x="243" y="45" width="7" height="7" fill="#3CDD4F" rx="1" stroke="#00000000" stroke-width="0.5" title="2024-07-13"/>
<rect x="243" y="54" width="7" height="7" fill="#3CDD4F" rx="1" stroke="#00000000" stroke-width="0.5" title="2024-07-14"/>
<rect x="252" y="0" width="7" height="7" fill="#FFB700" rx="1" stroke="#00000000" stroke-width="0.5" title="2024-07-15"/>
<rect x="252" y="9" width="7" height="7" fill="#3CDD4F" rx="1" stroke="#00000000" stroke-width="0.5" title="2024-07-16"/>
<rect x="252" y="18" width="7" height="7" fill="#FFB700" rx="1" stroke="#00000000" stroke-width="0.5" title="2024-07-17"/>
<rect x="252" y="27" width="7" height="7" fill="#3CDD4F" rx="1" stroke="#00000000" stroke-width="0.5" title="2024-07-18"/>
<rect x="252" y="36" width="7" height="7" fill="#3CDD4F" rx="1" stroke="#00000000" stroke-width="0.5" title="2024-07-19"/>
<rect x="252" y="45" width="7" height="7" fill="#E5FA00" rx="1" stroke="#00000000" stroke-width="0.5" title="2024-07-20"/>
<rect x="252" y="54" width="7" height="7" fill="#3CDD4F" rx="1" stroke="#00000000" stroke-width="0.5" title="2024-07-21"/>
<rect x="261" y="0" width="7" height="7" fill="#E5FA00" rx="1" stroke="#00000000" stroke-width="0.5" title="2024-07-22"/>
<rect x="261" y="9" width="7" height="7" fill="#3CDD4F" rx="1" stroke="#00000000" stroke-width="0.5" title="2024-07-23"/>
<rect x="261" y="18" width="7" height="7" fill="#3CDD4F" rx="1" stroke="#00000000" stroke-width="0.5" title="2024-07-24"/>
<rect x="261" y="27" width="7" height="7" fill="#E5FA00" rx="1" stroke="#00000000" stroke-width="0.5" title="2024-07-25"/>
<rect x="261" y="36" width="7" height="7" fill="#3CDD4F" rx="1" stroke="#00000000" stroke-width="0.5" title="2024-07-26"/>
<rect x="261" y="45" width="7" height="7" fill="#3CDD4F" rx="1" stroke="#00000000" stroke-width="0.5" title="2024-07-27"/>
<rect x="261" y="54" width="7" height="7" fill="#FFB700" rx="1" stroke="#00000000" stroke-width="0.5" title="2024-07-28"/>
<rect x="270" y="0" width="7" height="7" fill="#3CDD4F" rx="1" stroke="#00000000" stroke-width="0.5" title="2024-07-29"/>
<rect x="270" y="9" width="7" height="7" fill="#3CDD4F" rx="1" stroke="#00000000" stroke-width="0.5" title="2024-07-30"/>
<rect x="270" y="18" width="7" height="7" fill="#FFB700" rx="1" stroke="#00000000" stroke-width="0.5" title="2024-07-31"/>
<rect x="270" y="27" width="7" height="7" fill="#3CDD4F" rx="1" stroke="#00000000" stroke-width="0.5" title="2024-08-01"/>
<rect x="270" y="36" width="7" height="7" fill="#FFB700" rx="1" stroke="#00000000" stroke-width="0.5" title="2024-08-02"/>
<rect x="270" y="45" width="7" height="7" fill="#3CDD4F" rx="1" stroke="#00000000" stroke-width="0.5" title="2024-08-03"/>
<rect x="270" y="54" width="7" height="7" fill="#FFB700" rx="1" stroke="#00000000" stroke-width="0.5" title="2024-08-04"/>
<rect x="279" y="0" width="7" height="7" fill="#E5FA00" rx="1" stroke="#00000000" stroke-width="0.5" title="2024-08-05"/>
<rect x="279" y="9" width="7" height="7" fill="#3CDD4F" rx="1" stroke="#00000000" stroke-width="0.5" title="2024-08-06"/>
<rect x="279" y="18" width="7" height="7" fill="#3CDD4F" rx="1" stroke="#00000000" stroke-width="0.5" title="2024-08-07"/>
<rect x="279" y="27" width="7" height="7" fill="#E5FA00" rx="1" stroke="#00000000" stroke-width="0.5" title="2024-08-08"/>
<rect x="279" y="36" width="7" height="7" fill="#3CDD4F" rx="1" stroke="#00000000" stroke-width="0.5" title="2024-08-09"/>
<rect x="279" y="45" width="7" height="7" fill="#E5FA00" rx="1" stroke="#00000000" stroke-width="0.5" title="2024-08-10"/>
<rect x="279" y="54" width="7" height="7" fill="#3CDD4F" rx="1" stroke="#00000000" stroke-width="0.5" title="2024-08-11"/>
<rect x="288" y="0" width="7" height="7" fill="#3CDD4F" rx="1" stroke="#00000000" stroke-width="0.5" title="2024-08-12"/>
<rect x="288" y="9" width="7" height="7" fill="#3CDD4F" rx="1" stroke="#00000000" stroke-width="0.5" title="2024-08-13"/>
<rect x="288" y="18" width="7" height="7" fill="#E5FA00" rx="1" stroke="#00000000" stroke-width="0.5" title="2024-08-14"/>
<rect x="288" y="27" width="7" height="7" fill="#3CDD4F" rx="1" stroke="#00000000" stroke-width="0.5" title="2024-08-15"/>
<rect x="288" y="36" width="7" height="7" fill="#3CDD4F" rx="1" stroke="#00000000" stroke-width="0.5" title="2024-08-16"/>
<rect x="288" y="45" width="7" height="7" fill="#3CDD4F" rx="1" stroke="#00000000" stroke-width="0.5" title="2024-08-17"/>
<rect x="288" y="54" width="7" height="7" fill="#E5FA00" rx="1" stroke="#00000000" stroke-width="0.5" title="2024-08-18"/>
<rect x="297" y="0" width="7" height="7" fill="#3CDD4F" rx="1" stroke="#00000000" stroke-width="0.5" title="2024-08-19"/>
<rect x="297" y="9" width="7" height="7" fill="#3CDD4F" rx="1" stroke="#00000000" stroke-width="0.5" title="2024-08-20"/>
<rect x="297" y="18" width="7" height="7" fill="#FFB700" rx="1" stroke="#00000000" stroke-width="0.5" title="2024-08-21"/>
<rect x="297" y="27" width="7" height="7" fill="#3CDD4F" rx="1" stroke="#00000000" stroke-width="0.5" title="2024-08-22"/>
<rect x="297" y="36" width="7" height="7" fill="#3CDD4F" rx="1" stroke="#00000000" stroke-width="0.5" title="2024-08-23"/>
<rect x="297" y="45" width="7" height="7" fill="#3CDD4F" rx="1" stroke="#00000000" stroke-width="0.5" title="2024-08-24"/>
<rect x="297" y="54" width="7" height="7" fill="#E5FA00" rx="1" stroke="#00000000" stroke-width="0.5" title="2024-08-25"/>
<rect x="306" y="0" width="7" height="7" fill="#3CDD4F" rx="1" stroke="#00000000" stroke-width="0.5" title="2024-08-26"/>
<rect x="306" y="9" width="7" height="7" fill="#3CDD4F" rx="1" stroke="#00000000" stroke-width="0.5" title="2024-08-27"/>
<rect x="306" y="18" width="7" height="7" fill="#FFB700" rx="1" stroke="#00000000" stroke-width="0.5" title="2024-08-28"/>
<rect x="306" y="27" width="7" height="7" fill="#3CDD4F" rx="1" stroke="#00000000" stroke-width="0.5" title="2024-08-29"/>
<rect x="306" y="36" width="7" height="7" fill="#E5FA00" rx="1" stroke="#00000000" stroke-width="0.5" title="2024-08-30"/>
<rect x="306" y="45" width="7" height="7" fill="#E5FA00" rx="1" stroke="#00000000" stroke-width="0.5" title="2024-08-31"/>
<rect x="306" y="54" width="7" height="7" fill="#3CDD4F" rx="1" stroke="#00000000" stroke-width="0.5" title="2024-09-01"/>
<rect x="315" y="0" width="7" height="7" fill="#3CDD4F" rx="1" stroke="#00000000" stroke-width="0.5" title="2024-09-02"/>
<rect x="315" y="9" width="7" height="7" fill="#3CDD4F" rx="1" stroke="#00000000" stroke-width="0.5" title="2024-09-03"/>
<rect x="315" y="18" width="7" height="7" fill="#3CDD4F" rx="1" stroke="#00000000" stroke-width="0.5" title="2024-09-04"/>
<rect x="315" y="27" width="7" height="7" fill="#3CDD4F" rx="1" stroke="#00000000" stroke-width="0.5" title="2024-09-05"/>
<rect x="315" y="36" width="7" height="7" fill="#3CDD4F" rx="1" stroke="#00000000" stroke-width="0.5" title="2024-09-06"/>
<rect x="315" y="45" width="7" height="7" fill="#3CDD4F" rx="1" stroke="#00000000" stroke-width="0.5" title="2024-09-07"/>
<rect x="315" y="54" width="7" height="7" fill="#3CDD4F" rx="1" stroke="#00000000" stroke-width="0.5" title="2024-09-08"/>
<rect x="324" y="0" width="7" height="7" fill="#3CDD4F" rx="1" stroke="#00000000" stroke-width="0.5" title="2024-09-09"/>
<rect x="324" y="9" width="7" height="7" fill="#3CDD4F" rx="1" stroke="#00000000" stroke-width="0.5" title="2024-09-10"/>
<rect x="324" y="18" width="7" height="7" fill="#7676761f" rx="1" stroke="#00000000" stroke-width="0.5" title="2024-09-11"/>
<rect x="324" y="27" width="7" height="7" fill="#7676761f" rx="1" stroke="#00000000" stroke-width="0.5" title="2024-09-12"/>
<rect x="324" y="36" width="7" height="7" fill="#7676761f" rx="1" stroke="#00000000" stroke-width="0.5" title="2024-09-13"/>
<rect x="324" y="45" width="7" height="7" fill="#7676761f" rx="1" stroke="#00000000" stroke-width="0.5" title="2024-09-14"/>
<rect x="324" y="54" width="7" height="7" fill="#7676761f" rx="1" stroke="#00000000" stroke-width="0.5" title="2024-09-15"/>
<rect x="333" y="0" width="7" height="7" fill="#7676761f" rx="1" stroke="#00000000" stroke-width="0.5" title="2024-09-16"/>
<rect x="333" y="9" width="7" height="7" fill="#7676761f" rx="1" stroke="#00000000" stroke-width="0.5" title="2024-09-17"/>
<rect x="333" y="18" width="7" height="7" fill="#7676761f" rx="1" stroke="#00000000" stroke-width="0.5" title="2024-09-18"/>
<rect x="333" y="27" width="7" height="7" fill="#7676761f" rx="1" stroke="#00000000" stroke-width="0.5" title="2024-09-19"/>
<rect x="333" y="36" width="7" height="7" fill="#7676761f" rx="1" stroke="#00000000" stroke-width="0.5" title="2024-09-20"/>
<rect x="333" y="45" width="7" height="7" fill="#7676761f" rx="1" stroke="#00000000" stroke-width="0.5" title="2024-09-21"/>
<rect x="333" y="54" width="7" height="7" fill="#7676761f" rx="1" stroke="#00000000" stroke-width="0.5" title="2024-09-22"/>
<rect x="342" y="0" width="7" height="7" fill="#7676761f" rx="1" stroke="#00000000" stroke-width="0.5" title="2024-09-23"/>
<rect x="342" y="9" width="7" height="7" fill="#7676761f" rx="1" stroke="#00000000" stroke-width="0.5" title="2024-09-24"/>
<rect x="342" y="18" width="7" height="7" fill="#7676761f" rx="1" stroke="#00000000" stroke-width="0.5" title="2024-09-25"/>
<rect x="342" y="27" width="7" height="7" fill="#7676761f" rx="1" stroke="#00000000" stroke-width="0.5" title="2024-09-26"/>
<rect x="342" y="36" width="7" height="7" fill="#7676761f" rx="1" stroke="#00000000" stroke-width="0.5" title="2024-09-27"/>
<rect x="342" y="45" width="7" height="7" fill="#7676761f" rx="1" stroke="#00000000" stroke-width="0.5" title="2024-09-28"/>
<rect x="342" y="54" width="7" height="7" fill="#7676761f" rx="1" stroke="#00000000" stroke-width="0.5" title="2024-09-29"/>
<rect x="351" y="0" width="7" height="7" fill="#7676761f" rx="1" stroke="#00000000" stroke-width="0.5" title="2024-09-30"/>
<rect x="351" y="9" width="7" height="7" fill="#7676761f" rx="1" stroke="#00000000" stroke-width="0.5" title="2024-10-01"/>
<rect x="351" y="18" width="7" height="7" fill="#7676761f" rx="1" stroke="#00000000" stroke-width="0.5" title="2024-10-02"/>
<rect x="351" y="27" width="7" height="7" fill="#7676761f" rx="1" stroke="#00000000" stroke-width="0.5" title="2024-10-03"/>
<rect x="351" y="36" width="7" height="7" fill="#7676761f" rx="1" stroke="#00000000" stroke-width="0.5" title="2024-10-04"/>
<rect x="351" y="45" width="7" height="7" fill="#7676761f" rx="1" stroke="#00000000" stroke-width="0.5" title="2024-10-05"/>
<rect x="351" y="54" width="7" height="7" fill="#7676761f" rx="1" stroke="#00000000" stroke-width="0.5" title="2024-10-06"/>
<rect x="360" y="0" width="7" height="7" fill="#7676761f" rx="1" stroke="#00000000" stroke-width="0.5" title="2024-10-07"/>
<rect x="360" y="9" width="7" height="7" fill="#7676761f" rx="1" stroke="#00000000" stroke-width="0.5" title="2024-10-08"/>
<rect x="360" y="18" width="7" height="7" fill="#7676761f" rx="1" stroke="#00000000" stroke-width="0.5" title="2024-10-09"/>
<rect x="360" y="27" width="7" height="7" fill="#7676761f" rx="1" stroke="#00000000" stroke-width="0.5" title="2024-10-10"/>
<rect x="360" y="36" width="7" height="7" fill="#7676761f" rx="1" stroke="#00000000" stroke-width="0.5" title="2024-10-11"/>
<rect x="360" y="45" width="7" height="7" fill="#7676761f" rx="1" stroke="#00000000" stroke-width="0.5" title="2024-10-12"/>
<rect x="360" y="54" width="7" height="7" fill="#7676761f" rx="1" stroke="#00000000" stroke-width="0.5" title="2024-10-13"/>
<rect x="369" y="0" width="7" height="7" fill="#7676761f" rx="1" stroke="#00000000" stroke-width="0.5" title="2024-10-14"/>
<rect x="369" y="9" width="7" height="7" fill="#7676761f" rx="1" stroke="#00000000" stroke-width="0.5" title="2024-10-15"/>
<rect x="369" y="18" width="7" height="7" fill="#7676761f" rx="1" stroke="#00000000" stroke-width="0.5" title="2024-10-16"/>
<rect x="369" y="27" width="7" height="7" fill="#7676761f" rx="1" stroke="#00000000" stroke-width="0.5" title="2024-10-17"/>
<rect x="369" y="36" width="7" height="7" fill="#7676761f" rx="1" stroke="#00000000" stroke-width="0.5" title="2024-10-18"/>
<rect x="369" y="45" width="7" height="7" fill="#7676761f" rx="1" stroke="#00000000" stroke-width="0.5" title="2024-10-19"/>
<rect x="369" y="54" width="7" height="7" fill="#7676761f" rx="1" stroke="#00000000" stroke-width="0.5" title="2024-10-20"/>
<rect x="378" y="0" width="7" height="7" fill="#7676761f" rx="1" stroke="#00000000" stroke-width="0.5" title="2024-10-21"/>
<rect x="378" y="9" width="7" height="7" fill="#7676761f" rx="1" stroke="#00000000" stroke-width="0.5" title="2024-10-22"/>
<rect x="378" y="18" width="7" height="7" fill="#7676761f" rx="1" stroke="#00000000" stroke-width="0.5" title="2024-10-23"/>
<rect x="378" y="27" width="7" height="7" fill="#7676761f" rx="1" stroke="#00000000" stroke-width="0.5" title="2024-10-24"/>
<rect x="378" y="36" width="7" height="7" fill="#7676761f" rx="1" stroke="#00000000" stroke-width="0.5" title="2024-10-25"/>
<rect x="378" y="45" width="7" height="7" fill="#7676761f" rx="1" stroke="#00000000" stroke-width="0.5" title="2024-10-26"/>
<rect x="378" y="54" width="7" height="7" fill="#7676761f" rx="1" stroke="#00000000" stroke-width="0.5" title="2024-10-27"/>
<rect x="387" y="0" width="7" height="7" fill="#7676761f" rx="1" stroke="#00000000" stroke-width="0.5" title="2024-10-28"/>
<rect x="387" y="9" width="7" height="7" fill="#7676761f" rx="1" stroke="#00000000" stroke-width="0.5" title="2024-10-29"/>
<rect x="387" y="18" width="7" height="7" fill="#7676761f" rx="1" stroke="#00000000" stroke-width="0.5" title="2024-10-30"/>
<rect x="387" y="27" width="7" height="7" fill="#7676761f" rx="1" stroke="#00000000" stroke-width="0.5" title="2024-10-31"/>
<rect x="387" y="36" width="7" height="7" fill="#7676761f" rx="1" stroke="#00000000" stroke-width="0.5" title="2024-11-01"/>
<rect x="387" y="45" width="7" height="7" fill="#7676761f" rx="1" stroke="#00000000" stroke-width="0.5" title="2024-11-02"/>
<rect x="387" y="54" width="7" height="7" fill="#7676761f" rx="1" stroke="#00000000" stroke-width="0.5" title="2024-11-03"/>
<rect x="396" y="0" width="7" height="7" fill="#7676761f" rx="1" stroke="#00000000" stroke-width="0.5" title="2024-11-04"/>
<rect x="396" y="9" width="7" height="7" fill="#7676761f" rx="1" stroke="#00000000" stroke-width="0.5" title="2024-11-05"/>
<rect x="396" y="18" width="7" height="7" fill="#7676761f" rx="1" stroke="#00000000" stroke-width="0.5" title="2024-11-06"/>
<rect x="396" y="27" width="7" height="7" fill="#7676761f" rx="1" stroke="#00000000" stroke-width="0.5" title="2024-11-07"/>
<rect x="396" y="36" width="7" height="7" fill="#7676761f" rx="1" stroke="#00000000" stroke-width="0.5" title="2024-11-08"/>
<rect x="396" y="45" width="7" height="7" fill="#7676761f" rx="1" stroke="#00000000" stroke-width="0.5" title="2024-11-09"/>
<rect x="396" y="54" width="7" height="7" fill="#7676761f" rx="1" stroke="#00000000" stroke-width="0.5" title="2024-11-10"/>
<rect x="405" y="0" width="7" height="7" fill="#7676761f" rx="1" stroke="#00000000" stroke-width="0.5" title="2024-11-11"/>
<rect x="405" y="9" width="7" height="7" fill="#7676761f" rx="1" stroke="#00000000" stroke-width="0.5" title="2024-11-12"/>
<rect x="405" y="18" width="7" height="7" fill="#7676761f" rx="1" stroke="#00000000" stroke-width="0.5" title="2024-11-13"/>
<rect x="405" y="27" width="7" height="7" fill="#7676761f" rx="1" stroke="#00000000" stroke-width="0.5" title="2024-11-14"/>
<rect x="405" y="36" width="7" height="7" fill="#7676761f" rx="1" stroke="#00000000" stroke-width="0.5" title="2024-11-15"/>
<rect x="405" y="45" width="7" height="7" fill="#7676761f" rx="1" stroke="#00000000" stroke-width="0.5" title="2024-11-16"/>
<rect x="405" y="54" width="7" height="7" fill="#7676761f" rx="1" stroke="#00000000" stroke-width="0.5" title="2024-11-17"/>
<rect x="414" y="0" width="7" height="7" fill="#7676761f" rx="1" stroke="#00000000" stroke-width="0.5" title="2024-11-18"/>
<rect x="414" y="9" width="7" height="7" fill="#7676761f" rx="1" stroke="#00000000" stroke-width="0.5" title="2024-11-19"/>
<rect x="414" y="18" width="7" height="7" fill="#7676761f" rx="1" stroke="#00000000" stroke-width="0.5" title="2024-11-20"/>
<rect x="414" y="27" width="7" height="7" fill="#7676761f" rx="1" stroke="#00000000" stroke-width="0.5" title="2024-11-21"/>
<rect x="414" y="36" width="7" height="7" fill="#7676761f" rx="1" stroke="#00000000" stroke-width="0.5" title="2024-11-22"/>
<rect x="414" y="45" width="7" height="7" fill="#7676761f" rx="1" stroke="#00000000" stroke-width="0.5" title="2024-11-23"/>
<rect x="414" y="54" width="7" height="7" fill="#7676761f" rx="1" stroke="#00000000" stroke-width="0.5" title="2024-11-24"/>
<rect x="423" y="0" width="7" height="7" fill="#7676761f" rx="1" stroke="#00000000" stroke-width="0.5" title="2024-11-25"/>
<rect x="423" y="9" width="7" height="7" fill="#7676761f" rx="1" stroke="#00000000" stroke-width="0.5" title="2024-11-26"/>
<rect x="423" y="18" width="7" height="7" fill="#7676761f" rx="1" stroke="#00000000" stroke-width="0.5" title="2024-11-27"/>
<rect x="423" y="27" width="7" height="7" fill="#7676761f" rx="1" stroke="#00000000" stroke-width="0.5" title="2024-11-28"/>
<rect x="423" y="36" width="7" height="7" fill="#7676761f" rx="1" stroke="#00000000" stroke-width="0.5" title="2024-11-29"/>
<rect x="423" y="45" width="7" height="7" fill="#7676761f" rx="1" stroke="#00000000" stroke-width="0.5" title="2024-11-30"/>
<rect x="423" y="54" width="7" height="7" fill="#7676761f" rx="1" stroke="#00000000" stroke-width="0.5" title="2024-12-01"/>
<rect x="432" y="0" width="7" height="7" fill="#7676761f" rx="1" stroke="#00000000" stroke-width="0.5" title="2024-12-02"/>
<rect x="432" y="9" width="7" height="7" fill="#7676761f" rx="1" stroke="#00000000" stroke-width="0.5" title="2024-12-03"/>
<rect x="432" y="18" width="7" height="7" fill="#7676761f" rx="1" stroke="#00000000" stroke-width="0.5" title="2024-12-04"/>
<rect x="432" y="27" width="7" height="7" fill="#7676761f" rx="1" stroke="#00000000" stroke-width="0.5" title="2024-12-05"/>
<rect x="432" y="36" width="7" height="7" fill="#7676761f" rx="1" stroke="#00000000" stroke-width="0.5" title="2024-12-06"/>
<rect x="432" y="45" width="7" height="7" fill="#7676761f" rx="1" stroke="#00000000" stroke-width="0.5" title="2024-12-07"/>
<rect x="432" y="54" width="7" height="7" fill="#7676761f" rx="1" stroke="#00000000" stroke-width="0.5" title="2024-12-08"/>
<rect x="441" y="0" width="7" height="7" fill="#7676761f" rx="1" stroke="#00000000" stroke-width="0.5" title="2024-12-09"/>
<rect x="441" y="9" width="7" height="7" fill="#7676761f" rx="1" stroke="#00000000" stroke-width="0.5" title="2024-12-10"/>
<rect x="441" y="18" width="7" height="7" fill="#7676761f" rx="1" stroke="#00000000" stroke-width="0.5" title="2024-12-11"/>
<rect x="441" y="27" width="7" height="7" fill="#7676761f" rx="1" stroke="#00000000" stroke-width="0.5" title="2024-12-12"/>
<rect x="441" y="36" width="7" height="7" fill="#7676761f" rx="1" stroke="#00000000" stroke-width="0.5" title="2024-12-13"/>
<rect x="441" y="45" width="7" height="7" fill="#7676761f" rx="1" stroke="#00000000" stroke-width="0.5" title="2024-12-14"/>
<rect x="441" y="54" width="7" height="7" fill="#7676761f" rx="1" stroke="#00000000" stroke-width="0.5" title="2024-12-15"/>
<rect x="450" y="0" width="7" height="7" fill="#7676761f" rx="1" stroke="#00000000" stroke-width="0.5" title="2024-12-16"/>
<rect x="450" y="9" width="7" height="7" fill="#7676761f" rx="1" stroke="#00000000" stroke-width="0.5" title="2024-12-17"/>
<rect x="450" y="18" width="7" height="7" fill="#7676761f" rx="1" stroke="#00000000" stroke-width="0.5" title="2024-12-18"/>
<rect x="450" y="27" width="7" height="7" fill="#7676761f" rx="1" stroke="#00000000" stroke-width="0.5" title="2024-12-19"/>
<rect x="450" y="36" width="7" height="7" fill="#7676761f" rx="1" stroke="#00000000" stroke-width="0.5" title="2024-12-20"/>
<rect x="450" y="45" width="7" height="7" fill="#7676761f" rx="1" stroke="#00000000" stroke-width="0.5" title="2024-12-21"/>
<rect x="450" y="54" width="7" height="7" fill="#7676761f" rx="1" stroke="#00000000" stroke-width="0.5" title="2024-12-22"/>
<rect x="459" y="0" width="7" height="7" fill="#7676761f" rx="1" stroke="#00000000" stroke-width="0.5" title="2024-12-23"/>
<rect x="459" y="9" width="7" height="7" fill="#7676761f" rx="1" stroke="#00000000" stroke-width="0.5" title="2024-12-24"/>
<rect x="459" y="18" width="7" height="7" fill="#7676761f" rx="1" stroke="#00000000" stroke-width="0.5" title="2024-12-25"/>
<rect x="459" y="27" width="7" height="7" fill="#7676761f" rx="1" stroke="#00000000" stroke-width="0.5" title="2024-12-26"/>
<rect x="459" y="36" width="7" height="7" fill="#7676761f" rx="1" stroke="#00000000" stroke-width="0.5" title="2024-12-27"/>
<rect x="459" y="45" width="7" height="7" fill="#7676761f" rx="1" stroke="#00000000" stroke-width="0.5" title="2024-12-28"/>
<rect x="459" y="54" width="7" height="7" fill="#7676761f" rx="1" stroke="#00000000" stroke-width="0.5" title="2024-12-29"/>
<rect x="468" y="0" width="7" height="7" fill="#7676761f" rx="1" stroke="#00000000" stroke-width="0.5" title="2024-12-30"/>
</svg>